<svg width="139" height="20" viewBox="0 0 139 20" fill="none" xmlns="http://www.w3.org/2000/svg">
<path d="M3.92188 5.55859V12.2852H7.28516C7.74609 12.2852 8.17969 12.1992 8.58594 12.0273C8.99219 11.8477 9.34766 11.6055 9.65234 11.3008C9.95703 10.9961 10.1953 10.6406 10.3672 10.2344C10.5469 9.82031 10.6367 9.38281 10.6367 8.92188C10.6367 8.46094 10.5469 8.02734 10.3672 7.62109C10.1953 7.20703 9.95703 6.84766 9.65234 6.54297C9.34766 6.23828 8.99219 6 8.58594 5.82812C8.17969 5.64844 7.74609 5.55859 7.28516 5.55859H3.92188ZM3.92188 19H0.558594V2.19531H7.28516C7.90234 2.19531 8.49609 2.27734 9.06641 2.44141C9.63672 2.59766 10.168 2.82422 10.6602 3.12109C11.1602 3.41016 11.6133 3.76172 12.0195 4.17578C12.4336 4.58203 12.7852 5.03516 13.0742 5.53516C13.3711 6.03516 13.5977 6.57031 13.7539 7.14062C13.918 7.71094 14 8.30469 14 8.92188C14 9.84375 13.8242 10.7148 13.4727 11.5352C13.1211 12.3477 12.6406 13.0586 12.0312 13.668C11.4219 14.2773 10.707 14.7578 9.88672 15.1094C9.07422 15.4609 8.20703 15.6367 7.28516 15.6367H3.92188V19ZM18.8398 19H15.6406V1.45703H18.8398V7C19.2227 6.71094 19.6172 6.50781 20.0234 6.39062C20.4297 6.26562 20.8438 6.20312 21.2656 6.20312C22.0391 6.20312 22.7656 6.35156 23.4453 6.64844C24.125 6.9375 24.7148 7.33984 25.2148 7.85547C25.7227 8.36328 26.1211 8.96094 26.4102 9.64844C26.707 10.3281 26.8555 11.0547 26.8555 11.8281V19H23.6328V11.8281H23.6562C23.6562 11.5 23.5938 11.1914 23.4688 10.9023C23.3438 10.6055 23.1719 10.3477 22.9531 10.1289C22.7344 9.91016 22.4805 9.73828 22.1914 9.61328C21.9023 9.48828 21.5938 9.42578 21.2656 9.42578C20.9297 9.42578 20.6133 9.48828 20.3164 9.61328C20.0195 9.73828 19.7617 9.91016 19.543 10.1289C19.3242 10.3477 19.1523 10.6055 19.0273 10.9023C18.9023 11.1914 18.8398 11.5 18.8398 11.8281V19ZM41.2695 12.6133C41.2695 13.5508 41.1016 14.4258 40.7656 15.2383C40.4297 16.043 39.9727 16.7422 39.3945 17.3359C38.8164 17.9219 38.1367 18.3867 37.3555 18.7305C36.582 19.0664 35.75 19.2344 34.8594 19.2344C33.9766 19.2344 33.1445 19.0664 32.3633 18.7305C31.5898 18.3867 30.9102 17.9219 30.3242 17.3359C29.7461 16.7422 29.2891 16.043 28.9531 15.2383C28.6172 14.4258 28.4492 13.5508 28.4492 12.6133C28.4492 11.6602 28.6172 10.7773 28.9531 9.96484C29.2891 9.15234 29.7461 8.45312 30.3242 7.86719C30.9102 7.27344 31.5898 6.80859 32.3633 6.47266C33.1445 6.13672 33.9766 5.96875 34.8594 5.96875C35.75 5.96875 36.582 6.12891 37.3555 6.44922C38.1367 6.76172 38.8164 7.21094 39.3945 7.79688C39.9727 8.375 40.4297 9.07422 40.7656 9.89453C41.1016 10.707 41.2695 11.6133 41.2695 12.6133ZM38.0469 12.6133C38.0469 12.0977 37.9609 11.6328 37.7891 11.2188C37.625 10.7969 37.3984 10.4375 37.1094 10.1406C36.8203 9.83594 36.4805 9.60547 36.0898 9.44922C35.707 9.28516 35.2969 9.20312 34.8594 9.20312C34.4219 9.20312 34.0078 9.28516 33.6172 9.44922C33.2344 9.60547 32.8984 9.83594 32.6094 10.1406C32.3281 10.4375 32.1055 10.7969 31.9414 11.2188C31.7773 11.6328 31.6953 12.0977 31.6953 12.6133C31.6953 13.0977 31.7773 13.5469 31.9414 13.9609C32.1055 14.375 32.3281 14.7344 32.6094 15.0391C32.8984 15.3438 33.2344 15.5859 33.6172 15.7656C34.0078 15.9375 34.4219 16.0234 34.8594 16.0234C35.2969 16.0234 35.707 15.9414 36.0898 15.7773C36.4805 15.6133 36.8203 15.3828 37.1094 15.0859C37.3984 14.7891 37.625 14.4297 37.7891 14.0078C37.9609 13.5859 38.0469 13.1211 38.0469 12.6133ZM49.2383 19C48.4648 19 47.7383 18.8555 47.0586 18.5664C46.3789 18.2695 45.7812 17.8672 45.2656 17.3594C44.7578 16.8438 44.3555 16.2461 44.0586 15.5664C43.7695 14.8867 43.625 14.1602 43.625 13.3867V9.66016H42.0664V6.47266H43.625V1.45703H46.8125V6.47266H51.6641V9.66016H46.8125V13.3867C46.8125 13.7227 46.875 14.0391 47 14.3359C47.125 14.625 47.2969 14.8789 47.5156 15.0977C47.7344 15.3164 47.9922 15.4922 48.2891 15.625C48.5859 15.75 48.9023 15.8125 49.2383 15.8125H51.6641V19H49.2383ZM65.5977 12.6133C65.5977 13.5508 65.4297 14.4258 65.0938 15.2383C64.7578 16.043 64.3008 16.7422 63.7227 17.3359C63.1445 17.9219 62.4648 18.3867 61.6836 18.7305C60.9102 19.0664 60.0781 19.2344 59.1875 19.2344C58.3047 19.2344 57.4727 19.0664 56.6914 18.7305C55.918 18.3867 55.2383 17.9219 54.6523 17.3359C54.0742 16.7422 53.6172 16.043 53.2812 15.2383C52.9453 14.4258 52.7773 13.5508 52.7773 12.6133C52.7773 11.6602 52.9453 10.7773 53.2812 9.96484C53.6172 9.15234 54.0742 8.45312 54.6523 7.86719C55.2383 7.27344 55.918 6.80859 56.6914 6.47266C57.4727 6.13672 58.3047 5.96875 59.1875 5.96875C60.0781 5.96875 60.9102 6.12891 61.6836 6.44922C62.4648 6.76172 63.1445 7.21094 63.7227 7.79688C64.3008 8.375 64.7578 9.07422 65.0938 9.89453C65.4297 10.707 65.5977 11.6133 65.5977 12.6133ZM62.375 12.6133C62.375 12.0977 62.2891 11.6328 62.1172 11.2188C61.9531 10.7969 61.7266 10.4375 61.4375 10.1406C61.1484 9.83594 60.8086 9.60547 60.418 9.44922C60.0352 9.28516 59.625 9.20312 59.1875 9.20312C58.75 9.20312 58.3359 9.28516 57.9453 9.44922C57.5625 9.60547 57.2266 9.83594 56.9375 10.1406C56.6562 10.4375 56.4336 10.7969 56.2695 11.2188C56.1055 11.6328 56.0234 12.0977 56.0234 12.6133C56.0234 13.0977 56.1055 13.5469 56.2695 13.9609C56.4336 14.375 56.6562 14.7344 56.9375 15.0391C57.2266 15.3438 57.5625 15.5859 57.9453 15.7656C58.3359 15.9375 58.75 16.0234 59.1875 16.0234C59.625 16.0234 60.0352 15.9414 60.418 15.7773C60.8086 15.6133 61.1484 15.3828 61.4375 15.0859C61.7266 14.7891 61.9531 14.4297 62.1172 14.0078C62.2891 13.5859 62.375 13.1211 62.375 12.6133ZM66.7227 7.23438C66.7227 6.53906 66.8555 5.88672 67.1211 5.27734C67.3867 4.66797 67.7461 4.13672 68.1992 3.68359C68.6602 3.22266 69.1953 2.85938 69.8047 2.59375C70.4141 2.32812 71.0664 2.19531 71.7617 2.19531H79.4727V5.55859H71.7617C71.5273 5.55859 71.3086 5.60156 71.1055 5.6875C70.9023 5.77344 70.7227 5.89453 70.5664 6.05078C70.418 6.19922 70.3008 6.375 70.2148 6.57812C70.1289 6.78125 70.0859 7 70.0859 7.23438C70.0859 7.46875 70.1289 7.69141 70.2148 7.90234C70.3008 8.10547 70.418 8.28516 70.5664 8.44141C70.7227 8.58984 70.9023 8.70703 71.1055 8.79297C71.3086 8.87891 71.5273 8.92188 71.7617 8.92188H75.125C75.8203 8.92188 76.4727 9.05469 77.082 9.32031C77.6992 9.57812 78.2344 9.9375 78.6875 10.3984C79.1484 10.8516 79.5078 11.3867 79.7656 12.0039C80.0312 12.6133 80.1641 13.2656 80.1641 13.9609C80.1641 14.6562 80.0312 15.3086 79.7656 15.918C79.5078 16.5273 79.1484 17.0625 78.6875 17.5234C78.2344 17.9766 77.6992 18.3359 77.082 18.6016C76.4727 18.8672 75.8203 19 75.125 19H67.6602V15.6367H75.125C75.3594 15.6367 75.5781 15.5938 75.7812 15.5078C75.9844 15.4219 76.1602 15.3047 76.3086 15.1562C76.4648 15 76.5859 14.8203 76.6719 14.6172C76.7578 14.4141 76.8008 14.1953 76.8008 13.9609C76.8008 13.7266 76.7578 13.5078 76.6719 13.3047C76.5859 13.1016 76.4648 12.9258 76.3086 12.7773C76.1602 12.6211 75.9844 12.5 75.7812 12.4141C75.5781 12.3281 75.3594 12.2852 75.125 12.2852H71.7617C71.0664 12.2852 70.4141 12.1523 69.8047 11.8867C69.1953 11.6211 68.6602 11.2617 68.1992 10.8086C67.7461 10.3477 67.3867 9.8125 67.1211 9.20312C66.8555 8.58594 66.7227 7.92969 66.7227 7.23438ZM88.1211 19C87.3477 19 86.6211 18.8555 85.9414 18.5664C85.2617 18.2695 84.6641 17.8672 84.1484 17.3594C83.6406 16.8438 83.2383 16.2461 82.9414 15.5664C82.6523 14.8867 82.5078 14.1602 82.5078 13.3867V9.66016H80.9492V6.47266H82.5078V1.45703H85.6953V6.47266H90.5469V9.66016H85.6953V13.3867C85.6953 13.7227 85.7578 14.0391 85.8828 14.3359C86.0078 14.625 86.1797 14.8789 86.3984 15.0977C86.6172 15.3164 86.875 15.4922 87.1719 15.625C87.4688 15.75 87.7852 15.8125 88.1211 15.8125H90.5469V19H88.1211ZM101.574 17.5352C101.316 17.7695 101.039 17.9922 100.742 18.2031C100.453 18.4062 100.148 18.5859 99.8281 18.7422C99.5078 18.8906 99.1758 19.0078 98.832 19.0938C98.4961 19.1875 98.1523 19.2344 97.8008 19.2344C97.0273 19.2344 96.3008 19.0977 95.6211 18.8242C94.9414 18.5508 94.3438 18.1641 93.8281 17.6641C93.3203 17.1562 92.918 16.543 92.6211 15.8242C92.332 15.0977 92.1875 14.2852 92.1875 13.3867V6.44922H95.375V13.3867C95.375 13.8086 95.4375 14.1875 95.5625 14.5234C95.6953 14.8516 95.8711 15.1289 96.0898 15.3555C96.3086 15.582 96.5625 15.7539 96.8516 15.8711C97.1484 15.9883 97.4648 16.0469 97.8008 16.0469C98.1289 16.0469 98.4375 15.9727 98.7266 15.8242C99.0234 15.668 99.2812 15.4648 99.5 15.2148C99.7188 14.9648 99.8906 14.6836 100.016 14.3711C100.141 14.0508 100.203 13.7227 100.203 13.3867V6.44922H103.402V19H102.629L101.574 17.5352ZM117.98 19H117.207L115.965 17.2773C115.66 17.5508 115.336 17.8086 114.992 18.0508C114.656 18.2852 114.301 18.4922 113.926 18.6719C113.551 18.8438 113.164 18.9805 112.766 19.082C112.375 19.1836 111.977 19.2344 111.57 19.2344C110.688 19.2344 109.855 19.0703 109.074 18.7422C108.301 18.4062 107.621 17.9453 107.035 17.3594C106.457 16.7656 106 16.0664 105.664 15.2617C105.328 14.4492 105.16 13.5664 105.16 12.6133C105.16 11.668 105.328 10.7891 105.664 9.97656C106 9.16406 106.457 8.46094 107.035 7.86719C107.621 7.27344 108.301 6.80859 109.074 6.47266C109.855 6.13672 110.688 5.96875 111.57 5.96875C111.852 5.96875 112.141 5.99219 112.438 6.03906C112.742 6.08594 113.035 6.16406 113.316 6.27344C113.605 6.375 113.875 6.51172 114.125 6.68359C114.375 6.85547 114.586 7.06641 114.758 7.31641V1.45703H117.98V19ZM114.758 12.6133C114.758 12.1758 114.672 11.7539 114.5 11.3477C114.336 10.9336 114.109 10.5703 113.82 10.2578C113.531 9.9375 113.191 9.68359 112.801 9.49609C112.418 9.30078 112.008 9.20312 111.57 9.20312C111.133 9.20312 110.719 9.28125 110.328 9.4375C109.945 9.59375 109.609 9.82031 109.32 10.1172C109.039 10.4062 108.816 10.7617 108.652 11.1836C108.488 11.6055 108.406 12.082 108.406 12.6133C108.406 13.0742 108.488 13.5117 108.652 13.9258C108.816 14.3398 109.039 14.7031 109.32 15.0156C109.609 15.3281 109.945 15.5742 110.328 15.7539C110.719 15.9336 111.133 16.0234 111.57 16.0234C112.008 16.0234 112.418 15.9297 112.801 15.7422C113.191 15.5469 113.531 15.293 113.82 14.9805C114.109 14.6602 114.336 14.2969 114.5 13.8906C114.672 13.4766 114.758 13.0508 114.758 12.6133ZM124.203 3.03906C124.203 3.33594 124.145 3.61328 124.027 3.87109C123.918 4.12891 123.766 4.35547 123.57 4.55078C123.375 4.73828 123.145 4.89062 122.879 5.00781C122.621 5.11719 122.344 5.17188 122.047 5.17188C121.75 5.17188 121.469 5.11719 121.203 5.00781C120.945 4.89062 120.719 4.73828 120.523 4.55078C120.336 4.35547 120.184 4.12891 120.066 3.87109C119.957 3.61328 119.902 3.33594 119.902 3.03906C119.902 2.75 119.957 2.47656 120.066 2.21875C120.184 1.95312 120.336 1.72656 120.523 1.53906C120.719 1.34375 120.945 1.19141 121.203 1.08203C121.469 0.964844 121.75 0.90625 122.047 0.90625C122.344 0.90625 122.621 0.964844 122.879 1.08203C123.145 1.19141 123.375 1.34375 123.57 1.53906C123.766 1.72656 123.918 1.95312 124.027 2.21875C124.145 2.47656 124.203 2.75 124.203 3.03906ZM123.652 19H120.43V6.44922H123.652V19ZM138.23 12.6133C138.23 13.5508 138.062 14.4258 137.727 15.2383C137.391 16.043 136.934 16.7422 136.355 17.3359C135.777 17.9219 135.098 18.3867 134.316 18.7305C133.543 19.0664 132.711 19.2344 131.82 19.2344C130.938 19.2344 130.105 19.0664 129.324 18.7305C128.551 18.3867 127.871 17.9219 127.285 17.3359C126.707 16.7422 126.25 16.043 125.914 15.2383C125.578 14.4258 125.41 13.5508 125.41 12.6133C125.41 11.6602 125.578 10.7773 125.914 9.96484C126.25 9.15234 126.707 8.45312 127.285 7.86719C127.871 7.27344 128.551 6.80859 129.324 6.47266C130.105 6.13672 130.938 5.96875 131.82 5.96875C132.711 5.96875 133.543 6.12891 134.316 6.44922C135.098 6.76172 135.777 7.21094 136.355 7.79688C136.934 8.375 137.391 9.07422 137.727 9.89453C138.062 10.707 138.23 11.6133 138.23 12.6133ZM135.008 12.6133C135.008 12.0977 134.922 11.6328 134.75 11.2188C134.586 10.7969 134.359 10.4375 134.07 10.1406C133.781 9.83594 133.441 9.60547 133.051 9.44922C132.668 9.28516 132.258 9.20312 131.82 9.20312C131.383 9.20312 130.969 9.28516 130.578 9.44922C130.195 9.60547 129.859 9.83594 129.57 10.1406C129.289 10.4375 129.066 10.7969 128.902 11.2188C128.738 11.6328 128.656 12.0977 128.656 12.6133C128.656 13.0977 128.738 13.5469 128.902 13.9609C129.066 14.375 129.289 14.7344 129.57 15.0391C129.859 15.3438 130.195 15.5859 130.578 15.7656C130.969 15.9375 131.383 16.0234 131.82 16.0234C132.258 16.0234 132.668 15.9414 133.051 15.7773C133.441 15.6133 133.781 15.3828 134.07 15.0859C134.359 14.7891 134.586 14.4297 134.75 14.0078C134.922 13.5859 135.008 13.1211 135.008 12.6133Z" fill="#1E1E1E"/>
</svg>
