<svg width="140" height="20" viewBox="0 0 140 20" fill="none" xmlns="http://www.w3.org/2000/svg">
<path d="M3.92188 5.55859V12.2852H7.28516C7.74609 12.2852 8.17969 12.1992 8.58594 12.0273C8.99219 11.8477 9.34766 11.6055 9.65234 11.3008C9.95703 10.9961 10.1953 10.6406 10.3672 10.2344C10.5469 9.82031 10.6367 9.38281 10.6367 8.92188C10.6367 8.46094 10.5469 8.02734 10.3672 7.62109C10.1953 7.20703 9.95703 6.84766 9.65234 6.54297C9.34766 6.23828 8.99219 6 8.58594 5.82812C8.17969 5.64844 7.74609 5.55859 7.28516 5.55859H3.92188ZM3.92188 19H0.558594V2.19531H7.28516C7.90234 2.19531 8.49609 2.27734 9.06641 2.44141C9.63672 2.59766 10.168 2.82422 10.6602 3.12109C11.1602 3.41016 11.6133 3.76172 12.0195 4.17578C12.4336 4.58203 12.7852 5.03516 13.0742 5.53516C13.3711 6.03516 13.5977 6.57031 13.7539 7.14062C13.918 7.71094 14 8.30469 14 8.92188C14 9.84375 13.8242 10.7148 13.4727 11.5352C13.1211 12.3477 12.6406 13.0586 12.0312 13.668C11.4219 14.2773 10.707 14.7578 9.88672 15.1094C9.07422 15.4609 8.20703 15.6367 7.28516 15.6367H3.92188V19ZM18.8398 19H15.6406V1.45703H18.8398V7C19.2227 6.71094 19.6172 6.50781 20.0234 6.39062C20.4297 6.26562 20.8438 6.20312 21.2656 6.20312C22.0391 6.20312 22.7656 6.35156 23.4453 6.64844C24.125 6.9375 24.7148 7.33984 25.2148 7.85547C25.7227 8.36328 26.1211 8.96094 26.4102 9.64844C26.707 10.3281 26.8555 11.0547 26.8555 11.8281V19H23.6328V11.8281H23.6562C23.6562 11.5 23.5938 11.1914 23.4688 10.9023C23.3438 10.6055 23.1719 10.3477 22.9531 10.1289C22.7344 9.91016 22.4805 9.73828 22.1914 9.61328C21.9023 9.48828 21.5938 9.42578 21.2656 9.42578C20.9297 9.42578 20.6133 9.48828 20.3164 9.61328C20.0195 9.73828 19.7617 9.91016 19.543 10.1289C19.3242 10.3477 19.1523 10.6055 19.0273 10.9023C18.9023 11.1914 18.8398 11.5 18.8398 11.8281V19ZM41.2695 12.6133C41.2695 13.5508 41.1016 14.4258 40.7656 15.2383C40.4297 16.043 39.9727 16.7422 39.3945 17.3359C38.8164 17.9219 38.1367 18.3867 37.3555 18.7305C36.582 19.0664 35.75 19.2344 34.8594 19.2344C33.9766 19.2344 33.1445 19.0664 32.3633 18.7305C31.5898 18.3867 30.9102 17.9219 30.3242 17.3359C29.7461 16.7422 29.2891 16.043 28.9531 15.2383C28.6172 14.4258 28.4492 13.5508 28.4492 12.6133C28.4492 11.6602 28.6172 10.7773 28.9531 9.96484C29.2891 9.15234 29.7461 8.45312 30.3242 7.86719C30.9102 7.27344 31.5898 6.80859 32.3633 6.47266C33.1445 6.13672 33.9766 5.96875 34.8594 5.96875C35.75 5.96875 36.582 6.12891 37.3555 6.44922C38.1367 6.76172 38.8164 7.21094 39.3945 7.79688C39.9727 8.375 40.4297 9.07422 40.7656 9.89453C41.1016 10.707 41.2695 11.6133 41.2695 12.6133ZM38.0469 12.6133C38.0469 12.0977 37.9609 11.6328 37.7891 11.2188C37.625 10.7969 37.3984 10.4375 37.1094 10.1406C36.8203 9.83594 36.4805 9.60547 36.0898 9.44922C35.707 9.28516 35.2969 9.20312 34.8594 9.20312C34.4219 9.20312 34.0078 9.28516 33.6172 9.44922C33.2344 9.60547 32.8984 9.83594 32.6094 10.1406C32.3281 10.4375 32.1055 10.7969 31.9414 11.2188C31.7773 11.6328 31.6953 12.0977 31.6953 12.6133C31.6953 13.0977 31.7773 13.5469 31.9414 13.9609C32.1055 14.375 32.3281 14.7344 32.6094 15.0391C32.8984 15.3438 33.2344 15.5859 33.6172 15.7656C34.0078 15.9375 34.4219 16.0234 34.8594 16.0234C35.2969 16.0234 35.707 15.9414 36.0898 15.7773C36.4805 15.6133 36.8203 15.3828 37.1094 15.0859C37.3984 14.7891 37.625 14.4297 37.7891 14.0078C37.9609 13.5859 38.0469 13.1211 38.0469 12.6133ZM49.2383 19C48.4648 19 47.7383 18.8555 47.0586 18.5664C46.3789 18.2695 45.7812 17.8672 45.2656 17.3594C44.7578 16.8438 44.3555 16.2461 44.0586 15.5664C43.7695 14.8867 43.625 14.1602 43.625 13.3867V9.66016H42.0664V6.47266H43.625V1.45703H46.8125V6.47266H51.6641V9.66016H46.8125V13.3867C46.8125 13.7227 46.875 14.0391 47 14.3359C47.125 14.625 47.2969 14.8789 47.5156 15.0977C47.7344 15.3164 47.9922 15.4922 48.2891 15.625C48.5859 15.75 48.9023 15.8125 49.2383 15.8125H51.6641V19H49.2383ZM65.5977 12.6133C65.5977 13.5508 65.4297 14.4258 65.0938 15.2383C64.7578 16.043 64.3008 16.7422 63.7227 17.3359C63.1445 17.9219 62.4648 18.3867 61.6836 18.7305C60.9102 19.0664 60.0781 19.2344 59.1875 19.2344C58.3047 19.2344 57.4727 19.0664 56.6914 18.7305C55.918 18.3867 55.2383 17.9219 54.6523 17.3359C54.0742 16.7422 53.6172 16.043 53.2812 15.2383C52.9453 14.4258 52.7773 13.5508 52.7773 12.6133C52.7773 11.6602 52.9453 10.7773 53.2812 9.96484C53.6172 9.15234 54.0742 8.45312 54.6523 7.86719C55.2383 7.27344 55.918 6.80859 56.6914 6.47266C57.4727 6.13672 58.3047 5.96875 59.1875 5.96875C60.0781 5.96875 60.9102 6.12891 61.6836 6.44922C62.4648 6.76172 63.1445 7.21094 63.7227 7.79688C64.3008 8.375 64.7578 9.07422 65.0938 9.89453C65.4297 10.707 65.5977 11.6133 65.5977 12.6133ZM62.375 12.6133C62.375 12.0977 62.2891 11.6328 62.1172 11.2188C61.9531 10.7969 61.7266 10.4375 61.4375 10.1406C61.1484 9.83594 60.8086 9.60547 60.418 9.44922C60.0352 9.28516 59.625 9.20312 59.1875 9.20312C58.75 9.20312 58.3359 9.28516 57.9453 9.44922C57.5625 9.60547 57.2266 9.83594 56.9375 10.1406C56.6562 10.4375 56.4336 10.7969 56.2695 11.2188C56.1055 11.6328 56.0234 12.0977 56.0234 12.6133C56.0234 13.0977 56.1055 13.5469 56.2695 13.9609C56.4336 14.375 56.6562 14.7344 56.9375 15.0391C57.2266 15.3438 57.5625 15.5859 57.9453 15.7656C58.3359 15.9375 58.75 16.0234 59.1875 16.0234C59.625 16.0234 60.0352 15.9414 60.418 15.7773C60.8086 15.6133 61.1484 15.3828 61.4375 15.0859C61.7266 14.7891 61.9531 14.4297 62.1172 14.0078C62.2891 13.5859 62.375 13.1211 62.375 12.6133ZM81.1484 19H77.5508L71.0703 7.9375V19H67.707V2.19531H71.3047L77.7852 13.2695V2.19531H81.1484V19ZM95.9023 19H95.1289L93.8867 17.2773C93.582 17.5508 93.2578 17.8086 92.9141 18.0508C92.5781 18.2852 92.2227 18.4922 91.8477 18.6719C91.4727 18.8438 91.0859 18.9805 90.6875 19.082C90.2969 19.1836 89.8984 19.2344 89.4922 19.2344C88.6094 19.2344 87.7773 19.0859 86.9961 18.7891C86.2227 18.4922 85.543 18.0625 84.957 17.5C84.3789 16.9297 83.9219 16.2344 83.5859 15.4141C83.25 14.5938 83.082 13.6602 83.082 12.6133C83.082 11.6367 83.25 10.7422 83.5859 9.92969C83.9219 9.10938 84.3789 8.40625 84.957 7.82031C85.543 7.23438 86.2227 6.78125 86.9961 6.46094C87.7773 6.13281 88.6094 5.96875 89.4922 5.96875C89.8984 5.96875 90.3008 6.01953 90.6992 6.12109C91.0977 6.22266 91.4844 6.36328 91.8594 6.54297C92.2344 6.72266 92.5898 6.93359 92.9258 7.17578C93.2695 7.41797 93.5898 7.67969 93.8867 7.96094L95.1289 6.47266H95.9023V19ZM92.6797 12.6133C92.6797 12.1758 92.5938 11.7539 92.4219 11.3477C92.2578 10.9336 92.0312 10.5703 91.7422 10.2578C91.4531 9.9375 91.1133 9.68359 90.7227 9.49609C90.3398 9.30078 89.9297 9.20312 89.4922 9.20312C89.0547 9.20312 88.6406 9.27734 88.25 9.42578C87.8672 9.57422 87.5312 9.79297 87.2422 10.082C86.9609 10.3711 86.7383 10.7305 86.5742 11.1602C86.4102 11.582 86.3281 12.0664 86.3281 12.6133C86.3281 13.1602 86.4102 13.6484 86.5742 14.0781C86.7383 14.5 86.9609 14.8555 87.2422 15.1445C87.5312 15.4336 87.8672 15.6523 88.25 15.8008C88.6406 15.9492 89.0547 16.0234 89.4922 16.0234C89.9297 16.0234 90.3398 15.9297 90.7227 15.7422C91.1133 15.5469 91.4531 15.293 91.7422 14.9805C92.0312 14.6602 92.2578 14.2969 92.4219 13.8906C92.5938 13.4766 92.6797 13.0508 92.6797 12.6133ZM104.645 19C103.871 19 103.145 18.8555 102.465 18.5664C101.785 18.2695 101.188 17.8672 100.672 17.3594C100.164 16.8438 99.7617 16.2461 99.4648 15.5664C99.1758 14.8867 99.0312 14.1602 99.0312 13.3867V9.66016H97.4727V6.47266H99.0312V1.45703H102.219V6.47266H107.07V9.66016H102.219V13.3867C102.219 13.7227 102.281 14.0391 102.406 14.3359C102.531 14.625 102.703 14.8789 102.922 15.0977C103.141 15.3164 103.398 15.4922 103.695 15.625C103.992 15.75 104.309 15.8125 104.645 15.8125H107.07V19H104.645ZM112.648 3.03906C112.648 3.33594 112.59 3.61328 112.473 3.87109C112.363 4.12891 112.211 4.35547 112.016 4.55078C111.82 4.73828 111.59 4.89062 111.324 5.00781C111.066 5.11719 110.789 5.17188 110.492 5.17188C110.195 5.17188 109.914 5.11719 109.648 5.00781C109.391 4.89062 109.164 4.73828 108.969 4.55078C108.781 4.35547 108.629 4.12891 108.512 3.87109C108.402 3.61328 108.348 3.33594 108.348 3.03906C108.348 2.75 108.402 2.47656 108.512 2.21875C108.629 1.95312 108.781 1.72656 108.969 1.53906C109.164 1.34375 109.391 1.19141 109.648 1.08203C109.914 0.964844 110.195 0.90625 110.492 0.90625C110.789 0.90625 111.066 0.964844 111.324 1.08203C111.59 1.19141 111.82 1.34375 112.016 1.53906C112.211 1.72656 112.363 1.95312 112.473 2.21875C112.59 2.47656 112.648 2.75 112.648 3.03906ZM112.098 19H108.875V6.44922H112.098V19ZM126.676 12.6133C126.676 13.5508 126.508 14.4258 126.172 15.2383C125.836 16.043 125.379 16.7422 124.801 17.3359C124.223 17.9219 123.543 18.3867 122.762 18.7305C121.988 19.0664 121.156 19.2344 120.266 19.2344C119.383 19.2344 118.551 19.0664 117.77 18.7305C116.996 18.3867 116.316 17.9219 115.73 17.3359C115.152 16.7422 114.695 16.043 114.359 15.2383C114.023 14.4258 113.855 13.5508 113.855 12.6133C113.855 11.6602 114.023 10.7773 114.359 9.96484C114.695 9.15234 115.152 8.45312 115.73 7.86719C116.316 7.27344 116.996 6.80859 117.77 6.47266C118.551 6.13672 119.383 5.96875 120.266 5.96875C121.156 5.96875 121.988 6.12891 122.762 6.44922C123.543 6.76172 124.223 7.21094 124.801 7.79688C125.379 8.375 125.836 9.07422 126.172 9.89453C126.508 10.707 126.676 11.6133 126.676 12.6133ZM123.453 12.6133C123.453 12.0977 123.367 11.6328 123.195 11.2188C123.031 10.7969 122.805 10.4375 122.516 10.1406C122.227 9.83594 121.887 9.60547 121.496 9.44922C121.113 9.28516 120.703 9.20312 120.266 9.20312C119.828 9.20312 119.414 9.28516 119.023 9.44922C118.641 9.60547 118.305 9.83594 118.016 10.1406C117.734 10.4375 117.512 10.7969 117.348 11.2188C117.184 11.6328 117.102 12.0977 117.102 12.6133C117.102 13.0977 117.184 13.5469 117.348 13.9609C117.512 14.375 117.734 14.7344 118.016 15.0391C118.305 15.3438 118.641 15.5859 119.023 15.7656C119.414 15.9375 119.828 16.0234 120.266 16.0234C120.703 16.0234 121.113 15.9414 121.496 15.7773C121.887 15.6133 122.227 15.3828 122.516 15.0859C122.805 14.7891 123.031 14.4297 123.195 14.0078C123.367 13.5859 123.453 13.1211 123.453 12.6133ZM131.645 19H128.445V6.44922H129.219L130.273 7.66797C130.789 7.19922 131.371 6.83984 132.02 6.58984C132.676 6.33203 133.359 6.20312 134.07 6.20312C134.836 6.20312 135.559 6.35156 136.238 6.64844C136.918 6.9375 137.512 7.33984 138.02 7.85547C138.527 8.36328 138.926 8.96094 139.215 9.64844C139.512 10.3281 139.66 11.0547 139.66 11.8281V19H136.461V11.8281C136.461 11.5 136.398 11.1914 136.273 10.9023C136.148 10.6055 135.977 10.3477 135.758 10.1289C135.539 9.91016 135.285 9.73828 134.996 9.61328C134.707 9.48828 134.398 9.42578 134.07 9.42578C133.734 9.42578 133.418 9.48828 133.121 9.61328C132.824 9.73828 132.566 9.91016 132.348 10.1289C132.129 10.3477 131.957 10.6055 131.832 10.9023C131.707 11.1914 131.645 11.5 131.645 11.8281V19Z" fill="#1E1E1E"/>
</svg>
