<svg width="16" height="16" viewBox="0 0 16 16" fill="none" xmlns="http://www.w3.org/2000/svg">
<path d="M8 2C6.81331 2 5.65328 2.35189 4.66658 3.01118C3.67989 3.67047 2.91085 4.60754 2.45673 5.7039C2.0026 6.80026 1.88378 8.00666 2.11529 9.17054C2.3468 10.3344 2.91825 11.4035 3.75736 12.2426C4.59648 13.0818 5.66558 13.6532 6.82946 13.8847C7.99335 14.1162 9.19975 13.9974 10.2961 13.5433C11.3925 13.0892 12.3295 12.3201 12.9888 11.3334C13.6481 10.3467 14 9.18669 14 8C14 6.4087 13.3679 4.88258 12.2426 3.75736C11.1174 2.63214 9.5913 2 8 2ZM8 13C7.0111 13 6.0444 12.7068 5.22215 12.1573C4.39991 11.6079 3.75904 10.827 3.38061 9.91342C3.00217 8.99979 2.90315 7.99445 3.09608 7.02455C3.289 6.05464 3.76521 5.16373 4.46447 4.46447C5.16373 3.7652 6.05465 3.289 7.02455 3.09607C7.99446 2.90315 8.99979 3.00216 9.91342 3.3806C10.8271 3.75904 11.6079 4.3999 12.1574 5.22215C12.7068 6.04439 13 7.01109 13 8C13 9.32608 12.4732 10.5979 11.5355 11.5355C10.5979 12.4732 9.32609 13 8 13Z" fill="white"/>
<path d="M8.00024 6.84991C7.86763 6.84991 7.74045 6.90258 7.64668 6.99635C7.55292 7.09012 7.50024 7.2173 7.50024 7.34991V10.7499C7.50024 10.8825 7.55292 11.0097 7.64668 11.1035C7.74045 11.1972 7.86763 11.2499 8.00024 11.2499C8.13285 11.2499 8.26002 11.1972 8.35379 11.1035C8.44756 11.0097 8.50024 10.8825 8.50024 10.7499V7.34991C8.50024 7.2173 8.44756 7.09012 8.35379 6.99635C8.26002 6.90258 8.13285 6.84991 8.00024 6.84991ZM8.00024 4.79991C7.86488 4.805 7.73661 4.86172 7.64176 4.95842C7.54692 5.05513 7.4927 5.18448 7.49024 5.31991V5.39991C7.49 5.46514 7.50335 5.52971 7.52943 5.58951C7.55551 5.64931 7.59375 5.70302 7.64172 5.74723C7.6897 5.79144 7.74635 5.82518 7.80807 5.8463C7.86979 5.86742 7.93524 5.87546 8.00024 5.86991C8.13127 5.86496 8.25559 5.81069 8.3483 5.71797C8.44102 5.62526 8.49529 5.50093 8.50024 5.36991V5.24991C8.50063 5.18636 8.48756 5.12345 8.46189 5.06532C8.43621 5.00718 8.39852 4.95515 8.35128 4.91264C8.30404 4.87012 8.24834 4.8381 8.18783 4.81867C8.12733 4.79924 8.06339 4.79284 8.00024 4.79991Z" fill="white"/>
</svg>
